<?xml version="1.0" encoding="UTF-8" standalone="no"?>
<!-- Generator: Adobe Illustrator 16.0.0, SVG Export Plug-In . SVG Version: 6.00 Build 0)  -->

<svg
   version="1.1"
   id="Layer_1"
   x="0px"
   y="0px"
   width="917.49731"
   height="1000"
   viewBox="0 0 917.49731 999.99998"
   enable-background="new 0 0 820.313 999.986"
   xml:space="preserve"
   sodipodi:docname="Star_Gold Romance.svg"
   inkscape:version="1.1.1 (3bf5ae0d25, 2021-09-20)"
   xmlns:inkscape="http://www.inkscape.org/namespaces/inkscape"
   xmlns:sodipodi="http://sodipodi.sourceforge.net/DTD/sodipodi-0.dtd"
   xmlns="http://www.w3.org/2000/svg"
   xmlns:svg="http://www.w3.org/2000/svg"><defs
   id="defs17">
	
	
	
	
	
</defs><sodipodi:namedview
   id="namedview15"
   pagecolor="#ffffff"
   bordercolor="#666666"
   borderopacity="1.0"
   inkscape:pageshadow="2"
   inkscape:pageopacity="0.0"
   inkscape:pagecheckerboard="0"
   showgrid="false"
   inkscape:zoom="0.35355339"
   inkscape:cx="369.10974"
   inkscape:cy="436.99199"
   inkscape:window-width="1366"
   inkscape:window-height="705"
   inkscape:window-x="-8"
   inkscape:window-y="-8"
   inkscape:window-maximized="1"
   inkscape:current-layer="Layer_1" />

<g
   id="g16045"
   transform="matrix(1.2083319,0,0,1.2083319,0,2.310002e-6)"><g
     id="g63297"
     transform="matrix(1.0307164,0,0,1.0307164,-130.70205,-183.74734)"><path
       id="rect15580"
       d="M 424.24023,464.13672 545.4043,387.39453 757.01966,365.35938 571.87109,470.98633 499.51567,522.44731 340.36914,668.07227 401.15625,480.98633 Z"
       style="display:inline;fill:#2b3692;fill-opacity:1"
       sodipodi:nodetypes="cccccccc" /><path
       style="display:inline;fill:#ff5eb0;fill-opacity:1;stroke:none;stroke-width:2.20042"
       d="m 571.87109,470.98633 -72.35547,51.46094 159.14454,145.62695 z"
       id="path26049" /><path
       style="display:inline;fill:#ee4646;fill-opacity:1;stroke:none;stroke-width:2.20042"
       d="m 499.51562,178.27148 -0.002,0.006 v 0.004 L 453.625,387.39258 242.0097,365.35938 424.24023,464.13672 545.4043,387.39453 499.51562,178.2832 Z"
       id="path893"
       sodipodi:nodetypes="ccccccccc" /><path
       id="rect28333"
       style="display:inline;fill:#dd2b80;fill-opacity:1"
       d="M 499.51566,522.44733 658.66023,668.07423 499.51566,552.44727 Z"
       sodipodi:nodetypes="cccc" /><path
       id="rect28333-9"
       style="display:inline;fill:#f8b83d;fill-opacity:1"
       d="M 499.51369,522.44732 340.36912,668.07422 499.51369,552.44726 Z"
       sodipodi:nodetypes="cccc" /><path
       id="rect31592"
       style="display:inline;fill:#fb81d3;fill-opacity:1"
       d="m 658.66024,668.07422 -86.78915,-197.08789 26.00007,10 z"
       sodipodi:nodetypes="cccc" /><path
       id="rect28333-3"
       style="display:inline;fill:#f8b83d;fill-opacity:1"
       d="M 571.87109,470.98633 757.01966,365.35938 597.87116,480.98633 Z"
       sodipodi:nodetypes="cccc" /><path
       id="rect28333-3-6"
       style="display:inline;fill:#f06868;fill-opacity:1"
       d="m 438.72657,365.35938 -196.71489,-10e-6 211.61332,22.03321 z"
       sodipodi:nodetypes="cccc" /><path
       id="rect28333-3-9"
       style="display:inline;fill:#d12e2f;fill-opacity:1"
       d="M 401.15625,480.98633 242.01168,365.35937 424.24023,464.13672 Z"
       sodipodi:nodetypes="cccc" /><path
       id="rect28333-3-4"
       style="display:inline;fill:#d12e2f;fill-opacity:1"
       d="M 453.625,387.39258 499.51562,178.2832 438.72657,365.35938 Z"
       sodipodi:nodetypes="cccc" /><g
       id="g45227"
       transform="translate(-6e-5,0.00195)"
       style="fill:#cf322f;fill-opacity:1"><path
         id="rect28333-3-6-6"
         style="display:inline;fill:#4a51a2;fill-opacity:1"
         d="m 560.30279,365.35938 196.71489,-10e-6 -211.61332,22.03321 z"
         sodipodi:nodetypes="cccc" /><path
         id="rect28333-3-4-5"
         style="display:inline;fill:#f06868;fill-opacity:1"
         d="M 545.40436,387.39258 499.51374,178.2832 560.30279,365.35938 Z"
         sodipodi:nodetypes="cccc" /></g><path
       id="path12695"
       style="display:inline;fill:#ffffff;fill-opacity:1"
       d="m 573.3125,409.23242 c -71.12631,10.761 -126.4078,35.20618 -172.15625,71.75391 l -41.86328,128.84179 c 5.93271,-17.04765 23.25824,-59.41902 60.44922,-98.89257 47.82397,-50.75915 79.42318,-70.04264 153.57031,-101.70313 z" /><path
       id="path12695-2-0"
       style="display:inline;fill:#d3e0f0;fill-opacity:1"
       d="M 573.3125,409.23242 C 499.16537,440.89291 467.56601,460.17693 419.74204,510.93608 371.91806,561.69523 356.69336,617.83203 356.69336,617.83203 434.35171,520.72972 492.78235,474.89848 573.3125,409.23242 Z"
       sodipodi:nodetypes="czcc" /></g><g
     id="g6440"
     style="display:inline;fill:#000000"
     transform="translate(-135.41541,-53.999998)"><path
       d="m 146.68221,684.44024 q 5.57082,6.32193 10.95385,9.4516 5.44561,3.12966 10.82864,3.12966 5.00748,0 8.19974,-2.6915 3.25485,-2.69152 3.25485,-6.82269 0,-4.56931 -2.8167,-7.01046 -2.7541,-2.50373 -12.58126,-5.13266 -13.45758,-3.63041 -19.02839,-9.45159 -5.57082,-5.82119 -5.57082,-15.96132 0,-13.1446 8.76308,-21.40692 8.82567,-8.32493 22.84658,-8.32493 7.5738,0 14.33389,2.06559 6.82267,2.00298 12.89423,6.13415 l -7.82417,17.9643 q -4.25635,-3.63042 -8.76308,-5.44563 -4.44413,-1.8778 -8.82566,-1.8778 -4.50673,0 -7.32343,2.19077 -2.8167,2.12817 -2.8167,5.50821 0,3.44265 2.44114,5.50822 2.50374,2.06559 9.57679,3.94339 l 1.12669,0.31297 q 15.27277,4.13116 20.09246,9.07603 3.25486,3.38004 4.94489,8.13715 1.69001,4.6945 1.69001,10.45309 0,14.58425 -9.57678,23.47251 -9.57679,8.82567 -25.5381,8.82567 -9.57679,0 -17.46355,-3.25486 -7.82417,-3.25486 -15.085,-10.20272 z"
       id="path77011"
       style="font-weight:bold;font-size:124.371px;line-height:1.25;font-family:'Futura Md BT';-inkscape-font-specification:'Futura Md BT Bold';letter-spacing:3.49px;fill:#000000;stroke-width:0.739565" /><path
       d="m 237.05816,714.04691 v -69.9794 H 216.52753 V 622.4102 h 66.03601 v 21.65731 h -20.53062 v 69.9794 z"
       id="path77013"
       style="font-weight:bold;font-size:124.371px;line-height:1.25;font-family:'Futura Md BT';-inkscape-font-specification:'Futura Md BT Bold';letter-spacing:3.49px;fill:#000000;stroke-width:0.739565" /><path
       d="m 318.79705,679.80832 h 24.84957 l -9.32641,-30.23259 q -0.43816,-1.37706 -1.18928,-4.44413 -0.75112,-3.06708 -1.94039,-7.88677 -0.81372,3.38005 -1.62743,6.44712 -0.75112,3.06707 -1.56483,5.88378 z m -34.9897,34.23859 31.60966,-91.63671 h 31.29668 l 31.67225,91.63671 h -24.84957 l -4.63191,-16.39947 h -35.49044 l -4.7571,16.39947 z"
       id="path77015"
       style="font-weight:bold;font-size:124.371px;line-height:1.25;font-family:'Futura Md BT';-inkscape-font-specification:'Futura Md BT Bold';letter-spacing:3.49px;fill:#000000;stroke-width:0.739565" /><path
       d="M 391.38526,714.04691 V 622.4102 h 26.10144 q 15.33537,0 21.34435,1.43966 6.07154,1.37704 10.45309,4.6945 4.94487,3.7556 7.5738,9.57678 2.6915,5.82118 2.6915,12.83164 0,10.64088 -5.25783,17.33837 -5.19526,6.6349 -15.21019,8.82566 l 24.97475,36.9301 h -28.22961 l -21.03138,-35.866 v 35.866 z m 23.40992,-48.32209 h 4.63192 q 8.07454,0 11.76755,-2.75411 3.7556,-2.75411 3.7556,-8.63788 0,-6.88528 -3.50523,-9.76458 -3.44263,-2.94188 -11.64237,-2.94188 h -5.00747 z"
       id="path77017"
       style="font-weight:bold;font-size:124.371px;line-height:1.25;font-family:'Futura Md BT';-inkscape-font-specification:'Futura Md BT Bold';letter-spacing:3.49px;fill:#000000;stroke-width:0.739565" /><path
       d="m 563.81305,680.30908 v -19.21617 h 49.0732 q 0.0626,0.9389 0.0626,2.06558 0.0626,1.12668 0.0626,3.31745 0,23.6603 -12.51868,36.74231 -12.45608,13.01943 -35.11488,13.01943 -11.14162,0 -19.8421,-3.31746 -8.63788,-3.38004 -15.46057,-10.26531 -6.5097,-6.57231 -10.14012,-15.52316 -3.56783,-9.01344 -3.56783,-18.8406 0,-10.26532 3.50523,-18.84061 3.50523,-8.63789 10.45309,-15.52315 6.88528,-6.6975 15.77354,-10.14013 8.95086,-3.44263 19.27876,-3.44263 13.45758,0 23.78548,5.32043 10.3905,5.32043 17.46355,15.83612 l -21.65731,10.3905 q -3.88078,-5.32043 -8.76307,-7.88676 -4.81969,-2.62893 -10.82865,-2.62893 -11.20422,0 -17.65133,7.51121 -6.44712,7.44861 -6.44712,20.40545 0,13.082 6.44712,20.59322 6.44711,7.5112 17.65133,7.5112 9.51419,0 15.83612,-4.63191 6.38453,-4.69451 7.44862,-12.45608 z"
       id="path77019"
       style="font-weight:bold;font-size:124.371px;line-height:1.25;font-family:'Futura Md BT';-inkscape-font-specification:'Futura Md BT Bold';letter-spacing:3.49px;fill:#000000;stroke-width:0.739565" /><path
       d="m 724.13491,668.41633 q 0,9.88976 -3.63042,18.52764 -3.63041,8.63789 -10.57827,15.46056 -7.01046,6.76009 -16.02391,10.4531 -9.01344,3.63042 -18.71542,3.63042 -9.82716,0 -18.84061,-3.63042 -8.95084,-3.69301 -15.77353,-10.4531 -7.07305,-6.82267 -10.76606,-15.52315 -3.63041,-8.70047 -3.63041,-18.46505 0,-9.82716 3.63041,-18.46505 3.69301,-8.70047 10.76606,-15.52315 6.82269,-6.76008 15.77353,-10.3905 9.01345,-3.693 18.84061,-3.693 9.76456,0 18.77801,3.693 9.07604,3.63042 15.96132,10.3905 6.88527,6.76009 10.51569,15.46057 3.693,8.70047 3.693,18.52763 z m -48.94802,26.91515 q 10.3905,0 17.15059,-7.63638 6.82268,-7.63639 6.82268,-19.27877 0,-11.51717 -6.88528,-19.21616 -6.88527,-7.69899 -17.08799,-7.69899 -10.3905,0 -17.21318,7.69899 -6.76008,7.63639 -6.76008,19.21616 0,11.76756 6.6975,19.34135 6.69748,7.5738 17.27576,7.5738 z"
       id="path77021"
       style="font-weight:bold;font-size:124.371px;line-height:1.25;font-family:'Futura Md BT';-inkscape-font-specification:'Futura Md BT Bold';letter-spacing:3.49px;fill:#000000;stroke-width:0.739565" /><path
       d="M 739.77294,714.04691 V 622.4102 h 24.97475 v 70.22977 h 31.04633 v 21.40694 z"
       id="path77023"
       style="font-weight:bold;font-size:124.371px;line-height:1.25;font-family:'Futura Md BT';-inkscape-font-specification:'Futura Md BT Bold';letter-spacing:3.49px;fill:#000000;stroke-width:0.739565" /><path
       d="M 812.16378,714.04691 V 622.4102 h 19.09098 q 21.34435,0 30.17001,2.00299 8.88826,2.00299 15.58575,6.6975 8.70047,6.07155 13.2072,15.58575 4.50672,9.45159 4.50672,21.59471 0,12.14311 -4.50672,21.6573 -4.50673,9.45161 -13.2072,15.52317 -6.6349,4.6319 -15.14759,6.63489 -8.51271,1.9404 -26.41441,1.9404 h -4.19376 z m 24.72438,-20.53063 h 4.19376 q 14.70945,0 21.46953,-6.00897 6.76008,-6.07156 6.76008,-19.21616 0,-13.14461 -6.76008,-19.27877 -6.76008,-6.13414 -21.46953,-6.13414 h -4.19376 z"
       id="path77025"
       style="font-weight:bold;font-size:124.371px;line-height:1.25;font-family:'Futura Md BT';-inkscape-font-specification:'Futura Md BT Bold';letter-spacing:3.49px;fill:#000000;stroke-width:0.739565" /><path
       d="M 167.43747,877.40045 V 769.86722 h 25.26737 q 10.7974,0 15.79211,1.24868 5.06816,1.17523 8.88765,4.11329 4.77436,3.74604 7.41862,10.06288 2.64426,6.24339 2.64426,13.88236 0,13.2213 -7.41862,20.12576 -7.34517,6.831 -21.59479,6.831 h -2.277 l 41.05948,51.26926 h -16.23282 l -39.22318,-51.26926 h -1.8363 v 51.26926 z m 12.48678,-96.73584 v 35.99132 h 9.76907 q 14.98414,0 20.05231,-3.81949 5.06816,-3.89294 5.06816,-13.5151 0,-10.35669 -5.21507,-14.46998 -5.21506,-4.18675 -19.9054,-4.18675 z"
       id="path6352"
       style="font-size:150.429px;line-height:1.25;font-family:'Futura Bk BT';-inkscape-font-specification:'Futura Bk BT';fill:#000000;stroke-width:3.76073" /><path
       d="m 296.28843,868.21899 q 8.8142,0 16.74698,-3.30532 8.00623,-3.37878 14.39653,-9.76907 6.31684,-6.31684 9.62216,-14.32308 3.30533,-8.00623 3.30533,-16.96733 0,-9.03455 -3.37878,-17.18769 -3.30532,-8.15313 -9.54871,-14.39652 -6.31685,-6.31685 -14.32308,-9.62217 -7.93278,-3.30533 -16.82043,-3.30533 -8.9611,0 -16.96733,3.30533 -8.00623,3.30532 -14.17617,9.62217 -6.31685,6.39029 -9.62217,14.46997 -3.30532,8.07969 -3.30532,17.11424 0,8.9611 3.23187,16.89388 3.30532,7.93278 9.69562,14.39653 6.46374,6.46374 14.32307,9.76907 7.93278,3.30532 16.82043,3.30532 z m 57.4392,-44.3648 q 0,11.53191 -4.2602,21.74169 -4.26019,10.20978 -12.41333,18.14256 -8.15313,7.93278 -18.80362,12.26643 -10.57704,4.2602 -21.96205,4.2602 -11.38501,0 -21.96204,-4.2602 -10.50359,-4.33365 -18.65673,-12.26643 -8.22658,-8.00623 -12.56023,-18.21601 -4.2602,-10.20978 -4.2602,-21.66824 0,-11.53191 4.2602,-21.74169 4.33365,-10.28323 12.56023,-18.28946 8.07969,-7.85933 18.65673,-12.11953 10.57703,-4.26019 21.96204,-4.26019 11.45846,0 22.0355,4.26019 10.65049,4.2602 18.73017,12.11953 8.15314,7.93278 12.41333,18.21601 4.2602,10.20978 4.2602,21.81514 z"
       id="path6354"
       style="font-size:150.429px;line-height:1.25;font-family:'Futura Bk BT';-inkscape-font-specification:'Futura Bk BT';fill:#000000;stroke-width:3.76073" /><path
       d="m 418.42538,881.5872 -33.42051,-77.27115 -13.5151,73.0844 h -12.48678 l 21.81514,-111.79343 37.60725,88.94997 37.60725,-88.94997 21.81514,111.79343 h -12.48678 l -13.66201,-73.0844 z"
       id="path6356"
       style="font-size:150.429px;line-height:1.25;font-family:'Futura Bk BT';-inkscape-font-specification:'Futura Bk BT';fill:#000000;stroke-width:3.76073" /><path
       d="m 535.42252,793.88591 -17.11424,39.59045 h 34.22848 z m 0,-28.27889 48.91881,111.79343 H 570.45896 L 556.50315,844.42066 H 514.4888 l -13.95582,32.97979 h -13.88236 z"
       id="path6358"
       style="font-size:150.429px;line-height:1.25;font-family:'Futura Bk BT';-inkscape-font-specification:'Futura Bk BT';fill:#000000;stroke-width:3.76073" /><path
       d="M 600.07254,877.40045 V 765.60702 l 78.66673,85.93845 v -81.67825 h 12.19298 V 881.5872 l -78.66673,-84.98357 v 80.79682 z"
       id="path6360"
       style="font-size:150.429px;line-height:1.25;font-family:'Futura Bk BT';-inkscape-font-specification:'Futura Bk BT';fill:#000000;stroke-width:3.76073" /><path
       d="m 801.04088,795.5753 q -7.71243,-8.37349 -16.45317,-12.33988 -8.74075,-4.03984 -19.31779,-4.03984 -8.52039,0 -16.67353,3.45223 -8.07968,3.45223 -14.02926,9.62217 -6.16994,6.39029 -9.25491,14.32307 -3.08497,7.85933 -3.08497,17.40804 0,7.49207 1.83629,13.80892 1.83629,6.31684 5.50887,11.60536 6.46375,9.18146 15.86556,14.17617 9.47527,4.92126 20.41956,4.92126 10.28324,0 19.09744,-4.2602 8.81419,-4.26019 16.08591,-12.70713 v 16.96733 q -8.00623,5.80268 -17.26114,8.8142 -9.18146,2.93807 -19.02398,2.93807 -8.52039,0 -16.60008,-2.57081 -8.07968,-2.49736 -15.13104,-7.34517 -11.75226,-8.15313 -17.99566,-20.0523 -6.16994,-11.89917 -6.16994,-26.14879 0,-12.41333 4.1133,-22.54966 4.18674,-10.20978 12.70713,-18.50982 8.22659,-7.93278 18.21602,-11.82572 9.98942,-3.96639 21.81514,-3.96639 9.32836,0 18.06911,2.86462 8.74075,2.79116 17.26114,8.74074 z"
       id="path6362"
       style="font-size:150.429px;line-height:1.25;font-family:'Futura Bk BT';-inkscape-font-specification:'Futura Bk BT';fill:#000000;stroke-width:3.76073" /><path
       d="M 821.95603,877.40045 V 769.86722 h 56.70468 v 11.67881 h -43.92409 v 30.8497 h 43.92409 v 11.89917 h -43.92409 v 41.20638 h 43.92409 v 11.89917 z"
       id="path6364"
       style="font-size:150.429px;line-height:1.25;font-family:'Futura Bk BT';-inkscape-font-specification:'Futura Bk BT';fill:#000000;stroke-width:3.76073" /></g></g></svg>
