<?xml version="1.0" encoding="UTF-8" standalone="no"?>
<!-- Generator: Adobe Illustrator 16.0.0, SVG Export Plug-In . SVG Version: 6.00 Build 0)  -->

<svg
   version="1.1"
   id="Layer_1"
   x="0px"
   y="0px"
   width="919.12891"
   height="1000.0001"
   viewBox="0 0 919.1289 999.99994"
   enable-background="new 0 0 820.313 999.986"
   xml:space="preserve"
   sodipodi:docname="Star_Gold Thrills.svg"
   inkscape:version="1.1.1 (3bf5ae0d25, 2021-09-20)"
   xmlns:inkscape="http://www.inkscape.org/namespaces/inkscape"
   xmlns:sodipodi="http://sodipodi.sourceforge.net/DTD/sodipodi-0.dtd"
   xmlns="http://www.w3.org/2000/svg"
   xmlns:svg="http://www.w3.org/2000/svg"><defs
   id="defs17">
	
	
	
	
	
</defs><sodipodi:namedview
   id="namedview15"
   pagecolor="#ffffff"
   bordercolor="#666666"
   borderopacity="1.0"
   inkscape:pageshadow="2"
   inkscape:pageopacity="0.0"
   inkscape:pagecheckerboard="0"
   showgrid="false"
   inkscape:zoom="0.5"
   inkscape:cx="435"
   inkscape:cy="597"
   inkscape:window-width="1366"
   inkscape:window-height="705"
   inkscape:window-x="-8"
   inkscape:window-y="-8"
   inkscape:window-maximized="1"
   inkscape:current-layer="Layer_1" />

<g
   id="g10514"><g
     id="g63297"
     transform="matrix(1.2476622,0,0,1.2476622,-158.21231,-222.42259)"><path
       id="rect15580"
       d="M 424.24023,464.13672 545.4043,387.39453 757.01966,365.35938 571.87109,470.98633 499.51567,522.44731 340.36914,668.07227 401.15625,480.98633 Z"
       style="display:inline;fill:#2b3692;fill-opacity:1"
       sodipodi:nodetypes="cccccccc" /><path
       style="display:inline;fill:#2b75ed;fill-opacity:1;stroke:none;stroke-width:2.20042"
       d="m 571.87109,470.98633 -72.35547,51.46094 159.14454,145.62695 z"
       id="path26049" /><path
       style="display:inline;fill:#ee4646;fill-opacity:1;stroke:none;stroke-width:2.20042"
       d="m 499.51562,178.27148 -0.002,0.006 v 0.004 L 453.625,387.39258 242.0097,365.35938 424.24023,464.13672 545.4043,387.39453 499.51562,178.2832 Z"
       id="path893"
       sodipodi:nodetypes="ccccccccc" /><path
       id="rect28333"
       style="display:inline;fill:#3f46d1;fill-opacity:1"
       d="M 499.51566,522.44733 658.66023,668.07423 499.51566,552.44727 Z"
       sodipodi:nodetypes="cccc" /><path
       id="rect28333-9"
       style="display:inline;fill:#f8b83d;fill-opacity:1"
       d="M 499.51369,522.44732 340.36912,668.07422 499.51369,552.44726 Z"
       sodipodi:nodetypes="cccc" /><path
       id="rect31592"
       style="display:inline;fill:#38acfe;fill-opacity:1"
       d="m 658.66024,668.07422 -86.78915,-197.08789 26.00007,10 z"
       sodipodi:nodetypes="cccc" /><path
       id="rect28333-3"
       style="display:inline;fill:#f8b83d;fill-opacity:1"
       d="M 571.87109,470.98633 757.01966,365.35938 597.87116,480.98633 Z"
       sodipodi:nodetypes="cccc" /><path
       id="rect28333-3-6"
       style="display:inline;fill:#f06868;fill-opacity:1"
       d="m 438.72657,365.35938 -196.71489,-10e-6 211.61332,22.03321 z"
       sodipodi:nodetypes="cccc" /><path
       id="rect28333-3-9"
       style="display:inline;fill:#d12e2f;fill-opacity:1"
       d="M 401.15625,480.98633 242.01168,365.35937 424.24023,464.13672 Z"
       sodipodi:nodetypes="cccc" /><path
       id="rect28333-3-4"
       style="display:inline;fill:#d12e2f;fill-opacity:1"
       d="M 453.625,387.39258 499.51562,178.2832 438.72657,365.35938 Z"
       sodipodi:nodetypes="cccc" /><g
       id="g45227"
       transform="translate(-6e-5,0.00195)"
       style="fill:#cf322f;fill-opacity:1"><path
         id="rect28333-3-6-6"
         style="display:inline;fill:#4a51a2;fill-opacity:1"
         d="m 560.30279,365.35938 196.71489,-10e-6 -211.61332,22.03321 z"
         sodipodi:nodetypes="cccc" /><path
         id="rect28333-3-4-5"
         style="display:inline;fill:#f06868;fill-opacity:1"
         d="M 545.40436,387.39258 499.51374,178.2832 560.30279,365.35938 Z"
         sodipodi:nodetypes="cccc" /></g><path
       id="path12695"
       style="display:inline;fill:#ffffff;fill-opacity:1"
       d="m 573.3125,409.23242 c -71.12631,10.761 -126.4078,35.20618 -172.15625,71.75391 l -41.86328,128.84179 c 5.93271,-17.04765 23.25824,-59.41902 60.44922,-98.89257 47.82397,-50.75915 79.42318,-70.04264 153.57031,-101.70313 z" /><path
       id="path12695-2-0"
       style="display:inline;fill:#d3e0f0;fill-opacity:1"
       d="M 573.3125,409.23242 C 499.16537,440.89291 467.56601,460.17693 419.74204,510.93608 371.91806,561.69523 356.69336,617.83203 356.69336,617.83203 434.35171,520.72972 492.78235,474.89848 573.3125,409.23242 Z"
       sodipodi:nodetypes="czcc" /></g><g
     id="g5584"
     transform="matrix(1.0017783,0,0,1.0017783,-178.85659,-12.263375)"><path
       d="m 192.15312,774.02267 q 6.7314,7.63899 13.23589,11.42067 6.5801,3.78167 13.08459,3.78167 6.0507,0 9.90801,-3.25222 3.93294,-3.25225 3.93294,-8.24408 0,-5.52124 -3.40351,-8.47096 -3.32787,-3.02534 -15.20234,-6.20196 -16.26122,-4.38674 -22.99261,-11.42066 -6.7314,-7.03393 -6.7314,-19.28657 0,-15.88304 10.58871,-25.86666 10.66434,-10.05928 27.60625,-10.05928 9.15167,0 17.3201,2.49592 8.24405,2.42026 15.58051,7.41209 l -9.4542,21.70683 q -5.14308,-4.38675 -10.58871,-6.58013 -5.36998,-2.269 -10.66432,-2.269 -5.44563,0 -8.84914,2.64718 -3.4035,2.57153 -3.4035,6.65574 0,4.15987 2.9497,6.65576 3.02535,2.49592 11.57194,4.76492 l 1.36142,0.37818 q 18.45457,4.99181 24.27836,10.96685 3.93295,4.08421 5.97507,9.83238 2.04209,5.67251 2.04209,12.6308 0,17.62262 -11.57193,28.36259 -11.57194,10.66433 -30.8585,10.66433 -11.57194,0 -21.10176,-3.93295 -9.4542,-3.93295 -18.22769,-12.32827 z"
       id="path77011"
       style="font-weight:bold;font-size:124.371px;line-height:1.25;font-family:'Futura Md BT';-inkscape-font-specification:'Futura Md BT Bold';letter-spacing:3.49px;fill:#000000;stroke-width:0.89364" /><path
       d="M 301.35727,809.79736 V 725.23902 H 276.54945 V 699.0698 h 79.79342 v 26.16922 h -24.8078 v 84.55834 z"
       id="path77013"
       style="font-weight:bold;font-size:124.371px;line-height:1.25;font-family:'Futura Md BT';-inkscape-font-specification:'Futura Md BT Bold';letter-spacing:3.49px;fill:#000000;stroke-width:0.89364" /><path
       d="m 400.12498,768.42578 h 30.02652 l -11.2694,-36.53101 q -0.52944,-1.66394 -1.43704,-5.36998 -0.9076,-3.70605 -2.34464,-9.52984 -0.98324,4.08423 -1.96647,7.79026 -0.9076,3.70604 -1.89084,7.10956 z M 357.8458,809.79736 396.04076,699.0698 h 37.81678 l 38.27059,110.72756 H 442.1016 l -5.59688,-19.81601 h -42.88423 l -5.74816,19.81601 z"
       id="path77015"
       style="font-weight:bold;font-size:124.371px;line-height:1.25;font-family:'Futura Md BT';-inkscape-font-specification:'Futura Md BT Bold';letter-spacing:3.49px;fill:#000000;stroke-width:0.89364" /><path
       d="M 487.83562,809.79736 V 699.0698 h 31.53921 q 18.53021,0 25.79106,1.73958 7.33643,1.66393 12.6308,5.67252 5.97504,4.53801 9.15166,11.57193 3.25223,7.03391 3.25223,15.50488 0,12.85771 -6.35321,20.9505 -6.27759,8.01716 -18.37895,10.66433 l 30.17778,44.62382 h -34.11073 l -25.41289,-43.33804 v 43.33804 z m 28.28696,-58.38913 h 5.59689 q 9.75673,0 14.21911,-3.32788 4.53801,-3.32787 4.53801,-10.43742 0,-8.3197 -4.23548,-11.79885 -4.15984,-3.55477 -14.06785,-3.55477 h -6.05068 z"
       id="path77017"
       style="font-weight:bold;font-size:124.371px;line-height:1.25;font-family:'Futura Md BT';-inkscape-font-specification:'Futura Md BT Bold';letter-spacing:3.49px;fill:#000000;stroke-width:0.89364" /><path
       d="m 696.18562,769.03086 v -23.21951 h 59.29672 q 0.0756,1.1345 0.0756,2.49591 0.0756,1.3614 0.0756,4.00858 0,28.58949 -15.12672,44.3969 -15.05108,15.73179 -42.43043,15.73179 -13.46277,0 -23.97584,-4.00859 -10.43743,-4.08421 -18.6815,-12.4039 -7.86588,-7.94153 -12.25263,-18.75713 -4.31113,-10.89123 -4.31113,-22.7657 0,-12.40391 4.23549,-22.76571 4.23548,-10.43744 12.6308,-18.75712 8.3197,-8.0928 19.05967,-12.25264 10.81561,-4.15984 23.29514,-4.15984 16.26122,0 28.74075,6.42885 12.55518,6.42884 21.10177,19.13529 l -26.16922,12.55517 q -4.68927,-6.42885 -10.5887,-9.52982 -5.82378,-3.17662 -13.0846,-3.17662 -13.53842,0 -21.32867,9.07603 -7.79026,9.00039 -7.79026,24.65656 0,15.80739 7.79026,24.88344 7.79025,9.07602 21.32867,9.07602 11.4963,0 19.13529,-5.59688 7.71463,-5.67253 9.0004,-15.05108 z"
       id="path77019"
       style="font-weight:bold;font-size:124.371px;line-height:1.25;font-family:'Futura Md BT';-inkscape-font-specification:'Futura Md BT Bold';letter-spacing:3.49px;fill:#000000;stroke-width:0.89364" /><path
       d="m 889.90764,754.66047 q 0,11.95011 -4.38675,22.38754 -4.38674,10.43744 -12.78206,18.68149 -8.47096,8.16843 -19.3622,12.63081 -10.89123,4.38675 -22.61444,4.38675 -11.87447,0 -22.76571,-4.38675 -10.81559,-4.46238 -19.05966,-12.63081 -8.54659,-8.24405 -13.00898,-18.75712 -4.38674,-10.51306 -4.38674,-22.31191 0,-11.87447 4.38674,-22.31191 4.46239,-10.51305 13.00898,-18.75712 8.24407,-8.16842 19.05966,-12.55517 10.89124,-4.46237 22.76571,-4.46237 11.79883,0 22.69007,4.46237 10.96686,4.38675 19.28657,12.55517 8.31969,8.16844 12.70644,18.6815 4.46237,10.51306 4.46237,22.38753 z m -59.14545,32.52244 q 12.55517,0 20.7236,-9.22729 8.24406,-9.22729 8.24406,-23.29515 0,-13.91656 -8.3197,-23.2195 -8.31969,-9.30293 -20.64796,-9.30293 -12.55517,0 -20.79924,9.30293 -8.16842,9.2273 -8.16842,23.2195 0,14.21912 8.09281,23.37077 8.09277,9.15167 20.87485,9.15167 z"
       id="path77021"
       style="font-weight:bold;font-size:124.371px;line-height:1.25;font-family:'Futura Md BT';-inkscape-font-specification:'Futura Md BT Bold';letter-spacing:3.49px;fill:#000000;stroke-width:0.89364" /><path
       d="M 908.80357,809.79736 V 699.0698 h 30.17779 v 84.86087 h 37.51427 v 25.86669 z"
       id="path77023"
       style="font-weight:bold;font-size:124.371px;line-height:1.25;font-family:'Futura Md BT';-inkscape-font-specification:'Futura Md BT Bold';letter-spacing:3.49px;fill:#000000;stroke-width:0.89364" /><path
       d="M 996.27573,809.79736 V 699.0698 h 23.06827 q 25.791,0 36.4554,2.42027 10.7399,2.42028 18.8327,8.09281 10.5131,7.33644 15.9587,18.83276 5.4456,11.42065 5.4456,26.09357 0,14.67291 -5.4456,26.16921 -5.4456,11.42068 -15.9587,18.75714 -8.0171,5.59687 -18.3033,8.01715 -10.2862,2.34465 -31.9174,2.34465 h -5.0674 z m 29.87527,-24.80782 h 5.0674 q 17.7739,0 25.9424,-7.26083 8.1684,-7.33646 8.1684,-23.2195 0,-15.88305 -8.1684,-23.29515 -8.1685,-7.41208 -25.9424,-7.41208 h -5.0674 z"
       id="path77025"
       style="font-weight:bold;font-size:124.371px;line-height:1.25;font-family:'Futura Md BT';-inkscape-font-specification:'Futura Md BT Bold';letter-spacing:3.49px;fill:#000000;stroke-width:0.89364" /><path
       d="M 565.23237,1007.1826 V 877.24682 h 30.53137 q 13.04684,0 19.08211,1.50882 6.12402,1.42007 10.73923,4.97022 5.76901,4.52646 8.96415,12.1593 3.19515,7.54408 3.19515,16.77449 0,15.97572 -8.96416,24.3186 -8.8754,8.25412 -26.09367,8.25412 h -2.75137 l 49.61347,61.95023 H 629.93402 L 582.5394,945.23237 h -2.21886 v 61.95023 z m 15.08817,-116.88895 v 43.48946 h 11.80428 q 18.10581,0 24.22985,-4.61521 6.12402,-4.70397 6.12402,-16.33073 0,-12.51432 -6.30154,-17.48454 -6.30152,-5.05898 -24.05233,-5.05898 z"
       id="path6352"
       style="font-size:150.429px;line-height:1.25;font-family:'Futura Bk BT';-inkscape-font-specification:'Futura Bk BT';fill:#000000;stroke-width:4.54421" /><path
       d="M 348.55983,1007.1826 V 891.98 h -36.74412 v -14.73314 h 88.93142 V 891.98 h -36.56661 v 115.2026 z"
       id="path5413"
       style="font-size:181.768px;line-height:1.25;font-family:'Futura Bk BT';-inkscape-font-specification:'Futura Bk BT';fill:#000000;stroke-width:4.54421" /><path
       d="M 427.96539,1007.1826 V 877.24686 h 15.44318 v 49.96845 h 69.05054 v -49.96845 h 15.70944 v 129.93574 h -15.70944 v -65.23414 h -69.05054 v 65.23414 z"
       id="path5415"
       style="font-size:181.768px;line-height:1.25;font-family:'Futura Bk BT';-inkscape-font-specification:'Futura Bk BT';fill:#000000;stroke-width:4.54421" /><path
       d="M 670.68422,1007.1826 V 877.24686 h 15.44318 v 129.93574 z"
       id="path5419"
       style="font-size:181.768px;line-height:1.25;font-family:'Futura Bk BT';-inkscape-font-specification:'Futura Bk BT';fill:#000000;stroke-width:4.54421" /><path
       d="M 725.54626,1007.1826 V 877.24686 h 15.44318 v 115.20257 h 49.08091 v 14.73317 z"
       id="path5421"
       style="font-size:181.768px;line-height:1.25;font-family:'Futura Bk BT';-inkscape-font-specification:'Futura Bk BT';fill:#000000;stroke-width:4.54421" /><path
       d="M 814.44241,1007.1826 V 877.24686 h 15.44318 v 115.20257 h 49.08091 v 14.73317 z"
       id="path5423"
       style="font-size:181.768px;line-height:1.25;font-family:'Futura Bk BT';-inkscape-font-specification:'Futura Bk BT';fill:#000000;stroke-width:4.54421" /><path
       d="m 942.64442,935.02565 q 12.69181,5.41399 19.08209,14.37813 6.47904,8.96415 6.47904,21.21219 0,17.92829 -11.44926,28.93377 -11.3605,10.91676 -30.17633,10.91676 -15.35442,0 -25.73863,-7.8104 -10.38421,-7.89907 -14.02312,-22.36596 l 14.02312,-6.9228 q 2.84012,11.80427 9.31916,17.92829 6.56779,6.03526 16.41947,6.03526 11.62676,0 18.81583,-6.65654 7.18907,-6.7453 7.18907,-17.48452 0,-8.69788 -5.05898,-15.08816 -4.97021,-6.47904 -15.08816,-10.91673 l -15.7982,-6.7453 q -12.95807,-5.41399 -19.34835,-13.93436 -6.30153,-8.52038 -6.30153,-20.4134 0,-13.84561 10.29546,-22.89851 10.29545,-9.0529 26.27116,-9.0529 11.71551,0 20.23589,4.97022 8.60913,4.97022 13.40184,14.64439 l -12.78057,8.16536 q -4.34894,-7.54408 -9.76293,-11.18299 -5.41398,-3.72766 -12.24804,-3.72766 -8.69788,0 -14.28937,5.32523 -5.50275,5.32523 -5.50275,13.57935 0,6.9228 4.26019,11.98178 4.26019,5.05897 13.22433,8.96414 z"
       id="path5425"
       style="font-size:181.768px;line-height:1.25;font-family:'Futura Bk BT';-inkscape-font-specification:'Futura Bk BT';fill:#000000;stroke-width:4.54421" /></g></g></svg>
